{"title":"Believe S01E02 WEBRip x264 AAC [GWC].mp4","uid":9775687,"size":109049538,"categoryP":"video","categoryS":"tv_shows","magnet":"?xt=urn:btih:8bdb39ada37cfbdf714e967095ea13c58dffba62&amp;dn=Believe+S01E02+WEBRip+x264+AAC+%5BGWC%5D.mp4&amp;tr=udp%3A%2F%2Ftracker.openbittorrent.com%3A80&amp;tr=udp%3A%2F%2Fopen.demonii.com%3A1337&amp;tr=udp%3A%2F%2Ftracker.coppersurfer.tk%3A6969&amp;tr=udp%3A%2F%2Fexodus.desync.com%3A6969","seeders":1,"leechers":0,"uploader":"canc232","files":1,"time":1395030104,"description":"Believe S01E02 WEBRip x264 AAC [GWC] \n\n\nSTORYLINE :\nBelieve is about an unlikely relationship between a gifted young girl and a man sprung from prison who has been tasked with protecting her from the evil elements that hunt her power.\n\n\nSCREENS : &lt;a href=&quot;\nhttp://i.imgur.com/e8CSPKR.jpg&quot; rel=&quot;nofollow&quot; target=&quot;_NEW&quot;&gt;\nhttp://i.imgur.com/e8CSPKR.jpg&lt;/a&gt; &lt;a href=&quot;\nhttp://i.imgur.com/PDqV8Kn.jpg&quot; rel=&quot;nofollow&quot; target=&quot;_NEW&quot;&gt;\nhttp://i.imgur.com/PDqV8Kn.jpg&lt;/a&gt; &lt;a href=&quot;\nhttp://i.imgur.com/Qi09g6P.jpg&quot; rel=&quot;nofollow&quot; target=&quot;_NEW&quot;&gt;\nhttp://i.imgur.com/Qi09g6P.jpg&lt;/a&gt;\n\n\nMEDIA INFO :\nGeneral\nFormat : MPEG-4 \nFormat profile : Base Media\nFile size : 104 MiB \nDuration : 43mn 7s \nOverall bit rate mode : Variable \nOverall bit rate : 337 Kbps \n\nVideo \nFormat : AVC \nFormat profile : &lt;a class=&quot;__cf_email__&quot; href=&quot;/cdn-cgi/l/email-protection&quot; data-cfemail=&quot;80c8e9e7e8c0ccb3aeb0&quot;&gt;[email&amp;#160;protected]&lt;/a&gt;&lt;script cf-hash='f9e31' type=&quot;text/javascript&quot;&gt;\n/* &lt;![CDATA[ */!function(){try{var t=&quot;currentScript&quot;in document?document.currentScript:function(){for(var t=document.getElementsByTagName(&quot;script&quot;),e=t.length;e--;)if(t[e].getAttribute(&quot;cf-hash&quot;))return t[e]}();if(t&amp;&amp;t.previousSibling){var e,r,n,i,c=t.previousSibling,a=c.getAttribute(&quot;data-cfemail&quot;);if(a){for(e=&quot;&quot;,r=parseInt(a.substr(0,2),16),n=2;a.length-n;n+=2)i=parseInt(a.substr(n,2),16)^r,e+=String.fromCharCode(i);e=document.createTextNode(e),c.parentNode.replaceChild(e,c)}}}catch(u){}}();/* ]]&gt; */&lt;/script&gt; \nFormat settings, CABAC : Yes \nFormat settings, ReFrames : 4 frames \nDuration : 43mn 6s \nBit rate : 270 Kbps \nMaximum bit rate : 1 416 Kbps \nWidth : 720 pixels \nHeight : 404 pixels \nFrame rate mode : Constant \nFrame rate : 23.976 fps\nStream size : 83.3 MiB (80%) \nTitle : Believe S01E02 WEBRip x264 AAC [GWC] \nWriting library : x264 core \nLanguage : English \n\nAudio \nFormat : AAC \nFormat profile : HE-AAC / LC\nDuration : 43mn 7s \nBit rate mode : Variable \nChannel(s) : 2 channels \nSampling rate : 48.0 KHz / 24.0 KHz \nStream size : 19.7 MiB (19%) \nTitle : Believe S01E02 WEBRip x264 AAC [GWC] \nLanguage : English\n","torrent":{"xt":"urn:btih:8bdb39ada37cfbdf714e967095ea13c58dffba62","amp;dn":"Believe+S01E02+WEBRip+x264+AAC+%5BGWC%5D.mp4","amp;tr":["udp%3A%2F%2Ftracker.openbittorrent.com%3A80","udp%3A%2F%2Fopen.demonii.com%3A1337","udp%3A%2F%2Ftracker.coppersurfer.tk%3A6969","udp%3A%2F%2Fexodus.desync.com%3A6969"],"infoHash":"8bdb39ada37cfbdf714e967095ea13c58dffba62","infoHashBuffer":{"type":"Buffer","data":[139,219,57,173,163,124,251,223,113,78,150,112,149,234,19,197,141,255,186,98]},"announce":[],"urlList":[]}}